<?xml version="1.0" encoding="iso-8859-1"?>
<!-- Generator: Adobe Illustrator 19.0.0, SVG Export Plug-In . SVG Version: 6.00 Build 0)  -->
<svg version="1.1" id="Layer_1" xmlns="http://www.w3.org/2000/svg" xmlns:xlink="http://www.w3.org/1999/xlink" x="0px" y="0px"
	 viewBox="0 0 446.639 446.639" style="enable-background:new 0 0 446.639 446.639;" xml:space="preserve">
<g>
	<rect x="32.295" y="117.16" style="fill:#F4E9DF;" width="382.05" height="309.005"/>
	<g>
		<rect x="186.591" y="275.493" style="fill:#CEA68A;" width="73.457" height="125.271"/>
		<rect x="191.591" y="280.493" style="fill:#2D4151;" width="63.457" height="115.272"/>
		<rect x="312.835" y="275.493" style="fill:#CEA68A;" width="73.457" height="125.271"/>
		<rect x="317.835" y="280.493" style="fill:#2D4151;" width="63.457" height="115.272"/>
		<rect x="60.348" y="275.493" style="fill:#CEA68A;" width="73.457" height="125.271"/>
		<rect x="65.347" y="280.493" style="fill:#2D4151;" width="63.457" height="115.272"/>
	</g>
	<polygon style="fill:#E2C8B3;" points="422.416,110.468 24.223,110.468 21.938,100.324 223.32,4.743 424.701,100.324 	"/>
	<rect x="32.295" y="171.437" style="fill:#DBCEA9;" width="382.05" height="11.346"/>
	<polygon style="fill:#CEA68A;" points="415.001,110.468 31.638,110.468 223.32,19.494 	"/>
	<polygon style="fill:#E2C8B3;" points="107.105,93.468 223.319,38.312 339.534,93.468 	"/>
	<g>
		<rect x="108.634" y="189.788" style="fill:#E2C8B3;" width="39" height="204.642"/>
		<path style="fill:#CEA68A;" d="M117.134,387.098L117.134,387.098c-1.473,0-2.667-1.194-2.667-2.667V199.788
			c0-1.473,1.194-2.667,2.667-2.667l0,0c1.473,0,2.667,1.194,2.667,2.667v184.642C119.801,385.904,118.607,387.098,117.134,387.098z
			"/>
		<path style="fill:#CEA68A;" d="M128.134,387.098L128.134,387.098c-1.473,0-2.667-1.194-2.667-2.667V199.788
			c0-1.473,1.194-2.667,2.667-2.667l0,0c1.473,0,2.667,1.194,2.667,2.667v184.642C130.801,385.904,129.607,387.098,128.134,387.098z
			"/>
		<path style="fill:#CEA68A;" d="M139.134,387.098L139.134,387.098c-1.473,0-2.667-1.194-2.667-2.667V199.788
			c0-1.473,1.194-2.667,2.667-2.667l0,0c1.473,0,2.667,1.194,2.667,2.667v184.642C141.801,385.904,140.607,387.098,139.134,387.098z
			"/>
	</g>
	<g>
		<rect x="172.091" y="189.788" style="fill:#E2C8B3;" width="39" height="204.642"/>
		<path style="fill:#CEA68A;" d="M180.591,387.098L180.591,387.098c-1.473,0-2.667-1.194-2.667-2.667V199.788
			c0-1.473,1.194-2.667,2.667-2.667l0,0c1.473,0,2.667,1.194,2.667,2.667v184.642C183.258,385.904,182.064,387.098,180.591,387.098z
			"/>
		<path style="fill:#CEA68A;" d="M191.591,387.098L191.591,387.098c-1.473,0-2.667-1.194-2.667-2.667V199.788
			c0-1.473,1.194-2.667,2.667-2.667l0,0c1.473,0,2.667,1.194,2.667,2.667v184.642C194.258,385.904,193.064,387.098,191.591,387.098z
			"/>
		<path style="fill:#CEA68A;" d="M202.591,387.098L202.591,387.098c-1.473,0-2.667-1.194-2.667-2.667V199.788
			c0-1.473,1.194-2.667,2.667-2.667l0,0c1.473,0,2.667,1.194,2.667,2.667v184.642C205.258,385.904,204.064,387.098,202.591,387.098z
			"/>
	</g>
	<polygon style="fill:#E2C8B3;" points="240.568,394.431 237.895,394.431 24.961,394.431 24.961,413.256 237.895,413.256 
		240.568,413.256 421.678,413.256 421.678,394.431 	"/>
	<g>
		<rect x="235.548" y="189.788" style="fill:#E2C8B3;" width="39" height="204.642"/>
		<path style="fill:#CEA68A;" d="M244.048,387.098L244.048,387.098c-1.473,0-2.667-1.194-2.667-2.667V199.788
			c0-1.473,1.194-2.667,2.667-2.667l0,0c1.473,0,2.667,1.194,2.667,2.667v184.642C246.715,385.904,245.521,387.098,244.048,387.098z
			"/>
		<path style="fill:#CEA68A;" d="M255.048,387.098L255.048,387.098c-1.473,0-2.667-1.194-2.667-2.667V199.788
			c0-1.473,1.194-2.667,2.667-2.667l0,0c1.473,0,2.667,1.194,2.667,2.667v184.642C257.715,385.904,256.521,387.098,255.048,387.098z
			"/>
		<path style="fill:#CEA68A;" d="M266.048,387.098L266.048,387.098c-1.473,0-2.667-1.194-2.667-2.667V199.788
			c0-1.473,1.194-2.667,2.667-2.667l0,0c1.473,0,2.667,1.194,2.667,2.667v184.642C268.715,385.904,267.521,387.098,266.048,387.098z
			"/>
	</g>
	<g>
		<rect x="45.178" y="189.788" style="fill:#E2C8B3;" width="39" height="204.642"/>
		<path style="fill:#CEA68A;" d="M53.678,387.098L53.678,387.098c-1.473,0-2.667-1.194-2.667-2.667V199.788
			c0-1.473,1.194-2.667,2.667-2.667l0,0c1.473,0,2.667,1.194,2.667,2.667v184.642C56.344,385.904,55.15,387.098,53.678,387.098z"/>
		<path style="fill:#CEA68A;" d="M64.678,387.098L64.678,387.098c-1.473,0-2.667-1.194-2.667-2.667V199.788
			c0-1.473,1.194-2.667,2.667-2.667l0,0c1.473,0,2.667,1.194,2.667,2.667v184.642C67.344,385.904,66.15,387.098,64.678,387.098z"/>
		<path style="fill:#CEA68A;" d="M75.678,387.098L75.678,387.098c-1.473,0-2.667-1.194-2.667-2.667V199.788
			c0-1.473,1.194-2.667,2.667-2.667l0,0c1.473,0,2.667,1.194,2.667,2.667v184.642C78.344,385.904,77.15,387.098,75.678,387.098z"/>
	</g>
	<rect x="12.35" y="410.431" style="fill:#DDB69B;" width="421.939" height="20.825"/>
	<rect y="426.164" style="fill:#CEA68A;" width="446.639" height="15.733"/>
	<g>
		<rect x="299.005" y="189.788" style="fill:#E2C8B3;" width="39" height="204.642"/>
		<path style="fill:#CEA68A;" d="M329.505,387.098L329.505,387.098c1.473,0,2.667-1.194,2.667-2.667V199.788
			c0-1.473-1.194-2.667-2.667-2.667l0,0c-1.473,0-2.667,1.194-2.667,2.667v184.642C326.838,385.904,328.032,387.098,329.505,387.098
			z"/>
		<path style="fill:#CEA68A;" d="M318.505,387.098L318.505,387.098c1.473,0,2.667-1.194,2.667-2.667V199.788
			c0-1.473-1.194-2.667-2.667-2.667l0,0c-1.473,0-2.667,1.194-2.667,2.667v184.642C315.838,385.904,317.032,387.098,318.505,387.098
			z"/>
		<path style="fill:#CEA68A;" d="M307.505,387.098L307.505,387.098c1.473,0,2.667-1.194,2.667-2.667V199.788
			c0-1.473-1.194-2.667-2.667-2.667l0,0c-1.473,0-2.667,1.194-2.667,2.667v184.642C304.838,385.904,306.032,387.098,307.505,387.098
			z"/>
	</g>
	<g>
		<rect x="362.461" y="189.788" style="fill:#E2C8B3;" width="39" height="204.642"/>
		<path style="fill:#CEA68A;" d="M392.961,387.098L392.961,387.098c1.473,0,2.667-1.194,2.667-2.667V199.788
			c0-1.473-1.194-2.667-2.667-2.667l0,0c-1.473,0-2.667,1.194-2.667,2.667v184.642C390.295,385.904,391.489,387.098,392.961,387.098
			z"/>
		<path style="fill:#CEA68A;" d="M381.961,387.098L381.961,387.098c1.473,0,2.667-1.194,2.667-2.667V199.788
			c0-1.473-1.194-2.667-2.667-2.667l0,0c-1.473,0-2.667,1.194-2.667,2.667v184.642C379.295,385.904,380.489,387.098,381.961,387.098
			z"/>
		<path style="fill:#CEA68A;" d="M370.961,387.098L370.961,387.098c1.473,0,2.667-1.194,2.667-2.667V199.788
			c0-1.473-1.194-2.667-2.667-2.667l0,0c-1.473,0-2.667,1.194-2.667,2.667v184.642C368.295,385.904,369.489,387.098,370.961,387.098
			z"/>
	</g>
	<rect x="32.295" y="129.16" style="fill:#CEA68A;" width="382.05" height="11.346"/>
	<polygon style="fill:#DDB69B;" points="24.961,140.505 24.961,173.788 24.961,174.493 24.961,189.788 421.678,189.788 
		421.678,174.493 421.678,173.788 421.678,140.505 	"/>
	<polygon style="fill:#E2C8B3;" points="418.983,110.468 28.178,110.468 21.938,100.324 21.938,110.468 21.938,129.159 
		424.701,129.159 424.701,110.468 424.701,100.324 	"/>
	<g>
		<rect x="41.455" y="383.16" style="fill:#DDB69B;" width="46.445" height="11.272"/>
		<rect x="41.455" y="189.788" style="fill:#CEA68A;" width="46.445" height="11.272"/>
	</g>
	<g>
		<rect x="104.912" y="383.16" style="fill:#DDB69B;" width="46.445" height="11.272"/>
		<rect x="104.912" y="189.788" style="fill:#CEA68A;" width="46.445" height="11.272"/>
	</g>
	<g>
		<rect x="168.369" y="383.16" style="fill:#DDB69B;" width="46.445" height="11.272"/>
		<rect x="168.369" y="189.788" style="fill:#CEA68A;" width="46.445" height="11.272"/>
	</g>
	<g>
		<rect x="231.826" y="383.16" style="fill:#DDB69B;" width="46.445" height="11.272"/>
		<rect x="231.826" y="189.788" style="fill:#CEA68A;" width="46.445" height="11.272"/>
	</g>
	<g>
		<rect x="295.282" y="383.16" style="fill:#DDB69B;" width="46.445" height="11.272"/>
		<rect x="295.282" y="189.788" style="fill:#CEA68A;" width="46.445" height="11.272"/>
	</g>
	<g>
		<rect x="358.739" y="383.16" style="fill:#DDB69B;" width="46.445" height="11.272"/>
		<rect x="358.739" y="189.788" style="fill:#CEA68A;" width="46.445" height="11.272"/>
	</g>
	<g>
		<path style="fill:#9B6948;" d="M162.23,150.823c6.637,0,10.418,2.646,10.418,7.141c0,2.814-1.512,4.915-3.571,5.797v0.252
			c2.521,0.798,5.125,3.15,5.125,7.141c0,4.957-3.949,7.981-10.502,7.981h-14.703v-4.075h2.73v-20.164h-2.73v-4.075h13.233V150.823z
			 M158.198,162.711h2.856c3.613,0,5.377-1.554,5.377-4.033c0-2.521-1.764-3.781-5.377-3.781h-2.856V162.711z M158.198,175.061
			h3.907c3.865,0,5.461-1.554,5.461-4.201s-1.596-4.411-5.461-4.411h-3.907V175.061z"/>
		<path style="fill:#9B6948;" d="M204.568,150.823l9.704,24.238h2.311v4.075h-12.938v-4.075h3.697l-1.554-3.949H194.99l-1.512,3.949
			h3.697v4.075h-12.056v-4.075h2.31l7.771-20.122h-3.697v-4.117L204.568,150.823L204.568,150.823z M199.737,158.342l-3.318,8.905
			h7.897l-3.445-8.905l-0.42-1.723h-0.252L199.737,158.342z"/>
		<path style="fill:#9B6948;" d="M227.496,175.061h2.73v-20.164h-2.73v-4.075h9.2l12.392,19.239l0.21-0.042l-0.378-2.646v-12.476
			h-3.36v-4.075h11.678v4.075h-2.772v24.238h-6.385l-12.477-19.197l-0.21,0.084l0.378,2.646v12.392h3.319v4.075h-11.594v-4.074
			H227.496z"/>
		<path style="fill:#9B6948;" d="M280.796,150.823v4.075h-2.688v20.164h2.982v4.075h-12.182v-4.075h2.73v-20.164h-2.73v-4.075
			H280.796z M297.263,150.823v4.075h-2.856l-7.435,9.284l5.041,7.435c1.471,2.143,3.319,3.445,5.083,3.445h0.546v4.075
			c-0.714,0.168-1.723,0.336-3.067,0.336c-3.528,0-6.301-1.176-8.863-5.041l-6.259-9.494l6.889-8.905l1.092-0.924l-0.084-0.21h-2.94
			v-4.075L297.263,150.823L297.263,150.823z"/>
	</g>
</g>
<g>
</g>
<g>
</g>
<g>
</g>
<g>
</g>
<g>
</g>
<g>
</g>
<g>
</g>
<g>
</g>
<g>
</g>
<g>
</g>
<g>
</g>
<g>
</g>
<g>
</g>
<g>
</g>
<g>
</g>
</svg>
