<svg height="512" viewBox="0 0 64 64" width="512" xmlns="http://www.w3.org/2000/svg"><g id="Gas_station-pin-locations" data-name="Gas station-pin-locations"><path d="m17 3h32v23h-32z" fill="#787680"/><path d="m20 7h26v15h-26z" fill="#44ffe8"/><path d="m17 26h32v29h-32z" fill="#898890"/><ellipse cx="48" cy="58.5" fill="#d80027" rx="7" ry="2.5"/><path d="m58 41c0 5.523-10 17-10 17s-10-11.477-10-17a10 10 0 0 1 20 0z" fill="#ff5023"/><circle cx="48" cy="41" fill="#ffda44" r="4"/><path d="m11 16v11h-7v-15z" fill="#006df0"/><path d="m36 16a3 3 0 0 1 -6 0c0-1.66 3-5 3-5s3 3.34 3 5z" fill="#d80027"/><path d="m46 6h-26a1 1 0 0 0 -1 1v15a1 1 0 0 0 1 1h26a1 1 0 0 0 1-1v-15a1 1 0 0 0 -1-1zm-1 15h-24v-13h24z"/><path d="m43 41a5 5 0 1 0 5-5 5.006 5.006 0 0 0 -5 5zm8 0a3 3 0 1 1 -3-3 3 3 0 0 1 3 3z"/><path d="m51.48 55.31c3.04-3.92 7.52-10.37 7.52-14.31a11.021 11.021 0 0 0 -9-10.81v-27.19a1 1 0 0 0 -1-1h-32a1 1 0 0 0 -1 1v30h-.01a3 3 0 0 0 -2.99 3v10a3 3 0 0 1 -6 0v-18h4a1 1 0 0 0 1-1v-11a1 1 0 0 0 -.5-.87l-6.5-3.71v-4.85l4.51-2.71-1.02-1.72-5 3a.99.99 0 0 0 -.49.86v21a1 1 0 0 0 1 1h1v18a5 5 0 0 0 10 0v-10a1 1 0 0 1 1-1v20a1 1 0 0 0 1 1h25.19c-1.29.56-2.19 1.38-2.19 2.5 0 2.4 4.15 3.5 8 3.5s8-1.1 8-3.5c0-1.73-2.11-2.73-4.52-3.19zm-46.48-29.31v-12.28l5 2.86v9.42zm52 15c0 3.87-5.93 11.77-9 15.46-3.07-3.69-9-11.59-9-15.46a9 9 0 0 1 18 0zm-39-37h30v21h-30zm0 50v-27h30v3a11.007 11.007 0 0 0 -11 11c0 3.52 3.59 9.06 6.52 13zm30 6c-3.84 0-5.88-1.1-6-1.48.09-.31 1.37-1.1 3.96-1.39.71.87 1.2 1.43 1.29 1.53a1 1 0 0 0 1.5 0c.09-.1.58-.66 1.29-1.53 2.59.29 3.87 1.08 3.96 1.35-.12.42-2.16 1.52-6 1.52z"/><path d="m33 20a4 4 0 0 0 4-4c0-1.941-2.712-5.062-3.256-5.668a1.033 1.033 0 0 0 -1.488 0c-.544.606-3.256 3.727-3.256 5.668a4 4 0 0 0 4 4zm0-7.451c1.062 1.332 2 2.832 2 3.451a2 2 0 0 1 -4 0c0-.638.939-2.126 2-3.451z"/></g></svg>